<svg width="131" height="45" viewBox="0 0 131 45" fill="none" xmlns="http://www.w3.org/2000/svg">
<g clip-path="url(#clip0_844_33)">
<path d="M71.0448 19.487L67.9908 20.8856L67.9801 20.8892L64.9226 22.2806L64.9154 22.2842L61.8115 20.8678L58.7646 19.4799L58.7539 19.4763L55.7178 18.092L55.7106 18.0849H55.7071L53.6949 17.168V7.89186L55.7856 6.93927L58.8538 5.54071L58.861 5.53714L61.9185 4.14216L64.9047 2.77928L64.9154 2.78284L67.948 4.16713L67.9587 4.17426L70.9949 5.55855L71.0056 5.56212L74.0417 6.9464L74.0524 6.95354L76.2395 7.94894V14.9774H78.7619V6.31135L76.2395 5.16253L74.0524 4.16356L71.0163 2.77928L71.0056 2.77571L67.973 1.39142L67.9587 1.38429L64.9226 0H64.9083L61.8579 1.39142L53.6949 5.11615L51.1582 6.2721V18.7985L53.6949 19.9544L58.7539 22.2627L61.8579 23.6791L64.9012 25.067H64.9261L67.973 23.6791L67.9801 23.6756L71.0377 22.2806L71.0448 22.277L74.1024 20.882L71.0448 19.487Z" fill="#EF7C35"/>
<path d="M64.9436 11.1064H64.9329H64.9222L61.886 9.72211H61.8753L61.886 9.7114L64.9436 8.31641H64.9543H64.965L67.9976 9.7007H68.0083L67.9976 9.7114L64.94 11.1064H64.9436ZM78.7614 17.407V17.4142L77.1738 16.6899L76.2391 16.2618L74.944 15.6731L74.0806 15.2807L74.0413 12.4479L70.998 13.875L67.9761 12.4978L67.9654 12.4907H67.9761L71.0337 11.0921H71.0444L74.0984 9.69356L71.0622 8.30928H71.0515L68.019 6.92142H68.0083L64.9721 5.53357L61.9181 6.92856H61.9074L58.8534 8.32712H58.8427L55.7852 9.72567L58.8213 11.11H58.832L61.8682 12.4978H61.8789L64.915 13.8857H64.9257L67.9547 15.2735H67.9619L67.9726 15.2807H67.9619L64.9079 16.6792H64.9008H64.89L61.8575 15.2949L61.8468 15.2878L55.8101 12.4479V15.3734L58.7892 16.6828H58.7999L61.8325 18.0706H61.8432L64.89 19.4656L67.944 18.0706H67.9547L71.0087 16.6756H71.0194L71.0373 16.6792L74.1269 18.0885L76.2462 19.0553L77.1809 19.4835L78.7686 18.7592L80.2456 18.0849L78.7686 17.4106L78.7614 17.407Z" fill="#EF7C35"/>
<path d="M88.1125 39.2238L88.1018 39.2274L88.0947 39.2238L85.0586 37.8396L85.0479 37.8324L85.055 37.8289L88.1125 36.4339L88.1232 36.4303L88.134 36.4339L91.1665 37.8182L91.1772 37.8253L91.1701 37.8289L88.1125 39.2238Z" fill="#EF7C35"/>
<path d="M17.0186 38.4532V30.1653H19.5481V38.3497C19.5481 41.0219 20.9252 42.4633 23.1872 42.4633C25.4491 42.4633 26.8049 41.1076 26.8049 38.4532V30.1653H29.3344V38.3283C29.3344 42.6274 26.9084 44.7859 23.1444 44.7859C19.3804 44.7859 17.0186 42.6274 17.0186 38.4532Z" fill="#F1F2E7"/>
<path d="M33.9582 30.1689H31.4287V44.5648H33.9582V30.1689Z" fill="#F1F2E7"/>
<path d="M35.9414 30.1689H38.2854L45.9989 40.1194V30.1689H48.4856V44.5612H46.3664L38.4317 34.3218V44.5612H35.9414V30.1689Z" fill="#F1F2E7"/>
<path d="M50.2803 42.6917L58.7715 32.4095H50.5479V30.1689H62.061V32.0384L53.5697 42.3207H62.061V44.5612H50.2803V42.6917Z" fill="#F1F2E7"/>
<path d="M66.6848 30.1689H64.1553V44.5648H66.6848V30.1689Z" fill="#F1F2E7"/>
<path d="M81.1769 37.4043V37.3651C81.1769 34.5679 79.1397 32.2453 76.2819 32.2453C73.4242 32.2453 71.4298 34.5287 71.4298 37.3258V37.3686C71.4298 40.1657 73.467 42.4883 76.3247 42.4883C79.1825 42.4883 81.1769 40.205 81.1769 37.4079M68.7754 37.4079V37.3686C68.7754 33.3192 71.9007 29.9227 76.3212 29.9227C80.7416 29.9227 83.8277 33.2764 83.8277 37.3258V37.3686C83.8277 41.418 80.7024 44.8109 76.2819 44.8109C71.8615 44.8109 68.7754 41.4608 68.7754 37.4079Z" fill="#F1F2E7"/>
<path d="M12.4015 37.4043V37.3651C12.4015 34.5679 10.3643 32.2453 7.50654 32.2453C4.64878 32.2453 2.6544 34.5287 2.6544 37.3258V37.3686C2.6544 40.1657 4.69159 42.4883 7.54936 42.4883C10.4071 42.4883 12.4015 40.205 12.4015 37.4079M0 37.4079V37.3686C0 33.3192 3.12535 29.9227 7.54579 29.9227C11.9662 29.9227 15.0523 33.2764 15.0523 37.3258V37.3686C15.0523 41.418 11.927 44.8109 7.50654 44.8109C3.0861 44.8109 0 41.4573 0 37.4043" fill="#F1F2E7"/>
<path d="M10.6103 37.8289H7.19238L13.65 45L17.018 44.9394L10.6103 37.8289Z" fill="#F1F2E7"/>
<path d="M92.3936 30.3365H94.8767V42.1957H102.301V44.4577H92.3936V30.3365Z" fill="#F1F2E7"/>
<path d="M109.758 37.679C111.635 37.679 112.805 36.6301 112.805 35.1566V35.1174C112.805 33.4619 111.614 32.595 109.758 32.595H106.872V37.679H109.758ZM104.393 30.3366H109.958C113.248 30.3366 115.324 32.2132 115.324 35.0567V35.096C115.324 38.2641 112.784 39.916 109.676 39.916H106.872V44.4542H104.393V30.333V30.3366Z" fill="#F1F2E7"/>
<path d="M117.419 37.4364V37.3972C117.419 33.3835 120.423 30.094 124.7 30.094C127.301 30.094 128.878 31.0038 130.227 32.2917L128.632 34.1256C127.501 33.0766 126.292 32.3702 124.679 32.3702C121.975 32.3702 120.019 34.5894 120.019 37.3544V37.3936C120.019 40.1586 121.975 42.417 124.679 42.417C126.413 42.417 127.522 41.7106 128.732 40.5796L130.327 42.1922C128.853 43.7264 127.241 44.6932 124.597 44.6932C120.483 44.6932 117.415 41.4858 117.415 37.4293" fill="#F1F2E7"/>
</g>
<defs>
<clipPath id="clip0_844_33">
<rect width="130.33" height="45" fill="white"/>
</clipPath>
</defs>
</svg>
